<?xml version="1.0" encoding="utf-8"?>
<!-- Generator: Adobe Illustrator 16.0.0, SVG Export Plug-In . SVG Version: 6.00 Build 0)  -->
<!DOCTYPE svg PUBLIC "-//W3C//DTD SVG 1.1//EN" "http://www.w3.org/Graphics/SVG/1.1/DTD/svg11.dtd">
<svg version="1.1" id="Layer_1" xmlns="http://www.w3.org/2000/svg" xmlns:xlink="http://www.w3.org/1999/xlink" x="0px" y="0px"
	 width="48px" height="48px" viewBox="0 0 48 48" enable-background="new 0 0 48 48" xml:space="preserve">
<path fill="#CA3737" d="M48,48H0V0h48V48z"/>
<path fill="#FFFFFF" d="M40.246,15.546c0-0.145,0-0.291-0.146-0.437v-0.145c-0.436-1.309-1.599-2.182-3.055-2.182h0.292
	c0,0-5.674-0.873-13.384-0.873c-7.564,0-13.383,0.873-13.383,0.873h0.291c-1.455,0-2.618,0.873-3.055,2.182v0.145
	c0,0.146,0,0.292-0.146,0.437c-0.145,1.455-0.582,4.509-0.582,8.001c0,3.491,0.437,6.546,0.582,8.002c0,0.145,0,0.29,0.146,0.435
	v0.146c0.436,1.309,1.599,2.184,3.054,2.184H10.57c0,0,5.673,0.871,13.383,0.871c7.565,0,13.384-0.871,13.384-0.871h-0.292
	c1.456,0,2.62-0.875,3.055-2.184v-0.146c0-0.146,0-0.291,0.146-0.435c0.146-1.456,0.583-4.511,0.583-8.002
	C40.828,20.055,40.537,17.001,40.246,15.546z M28.9,24.274l-6.838,4.946c-0.146,0.147-0.291,0.147-0.436,0.147
	c-0.146,0-0.292,0-0.437-0.147c-0.291-0.146-0.436-0.436-0.436-0.727v-9.892c0-0.291,0.146-0.582,0.436-0.728
	c0.291-0.146,0.582-0.146,0.873,0L28.9,22.82c0.145,0.146,0.291,0.437,0.291,0.727C29.336,23.838,29.19,24.129,28.9,24.274z"/>
</svg>
