<?xml version="1.0" encoding="utf-8"?>
<!-- Generator: Adobe Illustrator 14.0.0, SVG Export Plug-In . SVG Version: 6.00 Build 43363)  -->
<!DOCTYPE svg PUBLIC "-//W3C//DTD SVG 1.1//EN" "http://www.w3.org/Graphics/SVG/1.1/DTD/svg11.dtd">
<svg version="1.1" id="Layer_1" xmlns="http://www.w3.org/2000/svg" xmlns:xlink="http://www.w3.org/1999/xlink" x="0px" y="0px"
	 width="23.998px" height="24px" viewBox="0 0 23.998 24" enable-background="new 0 0 23.998 24" xml:space="preserve">
<g>
	<path fill-rule="evenodd" clip-rule="evenodd" fill="#194C92" d="M21.97,19.47c-4.34,0.101-7.32,0.83-8.95,1.37V6.16
		c2.59-2.33,6.971-2.91,8.95-3.06V19.47z M10.979,20.84c-1.63-0.54-4.609-1.27-8.95-1.37V3.1c1.98,0.15,6.36,0.73,8.95,3.06V20.84z
		 M22.979,1C22.689,1,16.04,1.04,12,4.34C7.96,1.04,1.31,1,1.02,1H0v20.51h1.02c5.299,0,8.629,1.01,9.919,1.49h2.12
		c1.271-0.48,4.57-1.49,9.92-1.49H24V1H22.979z"/>
</g>
</svg>
