<?xml version="1.0" encoding="utf-8"?>
<!-- Generator: Adobe Illustrator 14.0.0, SVG Export Plug-In . SVG Version: 6.00 Build 43363)  -->
<!DOCTYPE svg PUBLIC "-//W3C//DTD SVG 1.1//EN" "http://www.w3.org/Graphics/SVG/1.1/DTD/svg11.dtd">
<svg version="1.1" id="Layer_1" xmlns="http://www.w3.org/2000/svg" xmlns:xlink="http://www.w3.org/1999/xlink" x="0px" y="0px"
	 width="24px" height="24px" viewBox="0 0 24 24" enable-background="new 0 0 24 24" xml:space="preserve">
<g>
	<path fill="#FFFFFF" d="M0,19.529V4.58l8.279,7.561L0,19.529z M24,19.529l-8.279-7.389L24,4.58V19.529z M12,13.801L0.55,3.49
		C0.85,3.19,1.27,3,1.729,3H22.27c0.459,0,0.879,0.19,1.189,0.49L12,13.801z M14.971,12.87l8.479,7.641
		C23.148,20.811,22.729,21,22.27,21H1.729C1.27,21,0.85,20.811,0.54,20.511l8.489-7.641L12,15.602L14.971,12.87z"/>
</g>
</svg>
