<?xml version="1.0" encoding="utf-8"?>
<!-- Generator: Adobe Illustrator 14.0.0, SVG Export Plug-In . SVG Version: 6.00 Build 43363)  -->
<!DOCTYPE svg PUBLIC "-//W3C//DTD SVG 1.1//EN" "http://www.w3.org/Graphics/SVG/1.1/DTD/svg11.dtd">
<svg version="1.1" id="Layer_1" xmlns="http://www.w3.org/2000/svg" xmlns:xlink="http://www.w3.org/1999/xlink" x="0px" y="0px"
	 width="23.998px" height="24px" viewBox="0 0 23.998 24" enable-background="new 0 0 23.998 24" xml:space="preserve">
<path fill-rule="evenodd" clip-rule="evenodd" fill="#194C92" d="M12.018,16.8c-2.72,0-4.939-2.159-4.939-4.8
	c0-2.64,2.22-4.8,4.939-4.8c2.711,0,4.931,2.16,4.931,4.8C16.948,14.641,14.729,16.8,12.018,16.8z M21.148,13.2
	c0-0.36,0.119-0.84,0.119-1.2c0-0.359,0-0.84-0.119-1.2l2.59-1.8c0.25-0.12,0.369-0.48,0.13-0.84l-2.47-4.2
	c-0.131-0.36-0.5-0.48-0.74-0.36l-2.96,1.32c-0.62-0.479-1.49-0.96-2.23-1.2l-0.37-3.12c0-0.36-0.24-0.6-0.609-0.6h-4.94
	c-0.37,0-0.62,0.24-0.62,0.6l-0.369,3c-0.86,0.36-1.601,0.72-2.221,1.2l-2.96-1.2c-0.25-0.12-0.62,0-0.739,0.24l-2.471,4.2
	c-0.24,0.36-0.24,0.72,0.13,0.84l2.591,1.92c0,0.36-0.131,0.841-0.131,1.2c0,0.36,0,0.84,0.131,1.2L0.298,15
	c-0.25,0.12-0.37,0.48-0.13,0.84l2.471,4.2c0.119,0.36,0.489,0.479,0.739,0.36l2.96-1.32c0.62,0.48,1.48,0.96,2.221,1.2l0.369,3.12
	c0,0.359,0.25,0.6,0.62,0.6h4.94c0.369,0,0.609-0.24,0.609-0.6l0.37-3.12c0.87-0.36,1.61-0.72,2.23-1.2l2.96,1.32
	c0.24,0.119,0.609,0,0.74-0.24l2.47-4.2c0.12-0.24,0.12-0.6-0.13-0.84L21.148,13.2z"/>
</svg>
