<?xml version="1.0" encoding="utf-8"?>
<!-- Generator: Adobe Illustrator 16.0.0, SVG Export Plug-In . SVG Version: 6.00 Build 0)  -->
<!DOCTYPE svg PUBLIC "-//W3C//DTD SVG 1.1//EN" "http://www.w3.org/Graphics/SVG/1.1/DTD/svg11.dtd">
<svg version="1.1" id="Layer_1" xmlns="http://www.w3.org/2000/svg" xmlns:xlink="http://www.w3.org/1999/xlink" x="0px" y="0px"
	 width="48px" height="48px" viewBox="0 0 48 48" enable-background="new 0 0 48 48" xml:space="preserve">
<path fill="#D95032" d="M48,48H0V0h48V48z"/>
<g>
	<path fill="#FFFFFF" d="M18.454,26.621h6.331c-0.727,2.94-2.966,4.58-6.387,4.58c-4.043,0-7.333-3.23-7.333-7.201
		c0-3.971,3.29-7.202,7.333-7.202c1.768,0,3.476,0.626,4.808,1.765l3.044-3.436c-2.176-1.859-4.964-2.883-7.852-2.883
		c-6.6,0-11.969,5.274-11.969,11.755s5.369,11.754,11.969,11.754c6.748,0,11.281-4.586,11.281-11.41v-2.277H18.454V26.621z"/>
	<polygon fill="#FFFFFF" points="43.929,22.028 39.804,22.028 39.804,17.903 36.804,17.903 36.804,22.028 32.679,22.028 
		32.679,25.028 36.804,25.028 36.804,29.153 39.804,29.153 39.804,25.028 43.929,25.028 	"/>
</g>
</svg>
