<?xml version="1.0" encoding="utf-8"?>
<!-- Generator: Adobe Illustrator 14.0.0, SVG Export Plug-In . SVG Version: 6.00 Build 43363)  -->
<!DOCTYPE svg PUBLIC "-//W3C//DTD SVG 1.1//EN" "http://www.w3.org/Graphics/SVG/1.1/DTD/svg11.dtd">
<svg version="1.1" id="Layer_1" xmlns="http://www.w3.org/2000/svg" xmlns:xlink="http://www.w3.org/1999/xlink" x="0px" y="0px"
	 width="24px" height="24px" viewBox="0 0 24 24" enable-background="new 0 0 24 24" xml:space="preserve">
<g>
	<path fill-rule="evenodd" clip-rule="evenodd" fill="#194C92" d="M0,19.53V4.58l8.279,7.561L0,19.53z M24,19.53l-8.28-7.39L24,4.58
		V19.53z M12,13.801L0.55,3.49C0.85,3.19,1.27,3,1.729,3h20.54c0.46,0,0.88,0.19,1.19,0.49L12,13.801z M14.97,12.87l8.48,7.641
		C23.149,20.811,22.729,21,22.27,21H1.729C1.27,21,0.85,20.811,0.54,20.511l8.489-7.641L12,15.601L14.97,12.87z"/>
</g>
</svg>