<?xml version="1.0" encoding="utf-8"?>
<!-- Generator: Adobe Illustrator 14.0.0, SVG Export Plug-In . SVG Version: 6.00 Build 43363)  -->
<!DOCTYPE svg PUBLIC "-//W3C//DTD SVG 1.1//EN" "http://www.w3.org/Graphics/SVG/1.1/DTD/svg11.dtd">
<svg version="1.1" id="Layer_1" xmlns="http://www.w3.org/2000/svg" xmlns:xlink="http://www.w3.org/1999/xlink" x="0px" y="0px"
	 width="23.998px" height="24px" viewBox="0 0 23.998 24" enable-background="new 0 0 23.998 24" xml:space="preserve">
<g>
	<path fill="#FFFFFF" d="M16,16v1H8v-1H16z M8,14h8v1H8V14z M17,18v-5H7v5H17z"/>
	<path fill="#FFFFFF" d="M6,4V2h12v2H6z M18,7H6V5h12V7z M18,10H6V8h12V10z M18,22H6V11h12V22z M4,0v24h16V0H4z"/>
	<path fill="#FFFFFF" d="M16,19c0,0,1,0,1,1s-1,1-1,1s-1-0.07-1-1S16,19,16,19z"/>
</g>
</svg>
