<?xml version="1.0" encoding="utf-8"?>
<!-- Generator: Adobe Illustrator 14.0.0, SVG Export Plug-In . SVG Version: 6.00 Build 43363)  -->
<!DOCTYPE svg PUBLIC "-//W3C//DTD SVG 1.1//EN" "http://www.w3.org/Graphics/SVG/1.1/DTD/svg11.dtd">
<svg version="1.1" id="Layer_1" xmlns="http://www.w3.org/2000/svg" xmlns:xlink="http://www.w3.org/1999/xlink" x="0px" y="0px"
	 width="23.998px" height="24px" viewBox="0 0 23.998 24" enable-background="new 0 0 23.998 24" xml:space="preserve">
<path fill="#FFFFFF" d="M12,0C5.373,0,0,5.373,0,12c0,6.627,5.373,12,12,12c6.628,0,12-5.373,12-12C24,5.373,18.628,0,12,0z
	 M12,4.37c1.78,0,3.229,1.45,3.229,3.24c0,1.78-1.449,3.229-3.229,3.229c-1.79,0-3.23-1.449-3.23-3.229
	C8.77,5.82,10.22,4.37,12,4.37z M17.569,18H6.43v-2.859c0-3.03,3.28-3.07,3.28-3.07h4.58c0,0,3.279,0.06,3.279,3.07V18z"/>
</svg>
