<?xml version="1.0" encoding="utf-8"?>
<!-- Generator: Adobe Illustrator 14.0.0, SVG Export Plug-In . SVG Version: 6.00 Build 43363)  -->
<!DOCTYPE svg PUBLIC "-//W3C//DTD SVG 1.1//EN" "http://www.w3.org/Graphics/SVG/1.1/DTD/svg11.dtd">
<svg version="1.1" id="Layer_1" xmlns="http://www.w3.org/2000/svg" xmlns:xlink="http://www.w3.org/1999/xlink" x="0px" y="0px"
	 width="126px" height="56px" viewBox="0 0 126 56" enable-background="new 0 0 126 56" xml:space="preserve">
<g>
	<g>
		<path fill="#FFFFFF" d="M107.661,17.874c0,0,6.696-8.123,3.08-11.716c-3.616-3.642-7.7-3.828-10.92-3.688
			c-3.196,0.163-11.083-0.28-35.863,7.352c11.362-3.828,22.446-7.352,33.646-9.08c11.2-1.726,17.687-0.186,19.81,1.984
			c2.148,2.171,4.971,5.881-5.6,15.147H107.661z"/>
		<path fill="#FFFFFF" d="M23.777,29.683c0,0-12.087,10.408-10.687,16.754c1.377,6.324,8.12,6.231,10.687,6.324
			c2.589,0.094,27.347,0.304,62.534-18.32c-12.483,6.722-32.317,17.737-62.324,21.097c-9.216,0.982-15.073,0.491-17.639-2.38
			c-2.591-2.87-1.681-6.837,1.773-10.805C11.597,38.41,19.717,31.97,23.777,29.683z"/>
		<path fill-rule="evenodd" clip-rule="evenodd" fill="#FFFFFF" d="M0,27.534v-9.591h25.387v1.376H5.67v2.287h12.11v1.495H5.67
			v2.917h20.486v1.423L0,27.534z M99.844,27.441v-9.474h25.387v1.353h-19.693v2.287h12.134v1.495h-12.134v2.94H126v1.399H99.844z
			 M69.3,23.218h0.186h2.777h17.663c0.094,0,0.14,0.047,0.14,0.094v2.425c0,0.024-0.046,0.094-0.14,0.094h-18.62
			c-0.07,0-0.14-0.07-0.14-0.094v-0.699h-4.9v0.209c0,1.167,0.886,2.101,1.983,2.101h24.78c1.073,0,1.96-0.935,1.96-2.101v-1.446
			c0-1.168-0.887-2.149-1.96-2.149h-0.747h-3.5H72.38c-0.093,0-0.14-0.046-0.14-0.116v-2.1c0-0.071,0.047-0.093,0.14-0.093h17.36
			c0.046,0,0.14,0.022,0.14,0.093v0.7h4.876v-0.21c0-1.167-0.886-2.1-1.937-2.1H69.3c-1.097,0-1.96,0.933-1.96,2.1v1.12
			C67.34,22.236,68.25,23.218,69.3,23.218z M59.733,10.032c1.657,0,2.986,1.307,2.986,2.94c0,1.61-1.33,2.94-2.986,2.94
			s-2.987-1.33-2.987-2.94C56.746,11.338,58.077,10.032,59.733,10.032z M58.449,10.966c0,0,0.398-0.77,1.774-0.467
			c1.354,0.327,1.937,1.447,1.867,2.333c-0.07,0.887-0.606,0.653-0.677,0.42c-0.069-0.257-0.256-1.447-1.073-1.703
			C59.756,11.198,58.66,11.409,58.449,10.966z M34.954,25.901h19.53v1.633h-19.53h-5.577v-1.633V17.92h5.577V25.901z M56.746,17.92
			H62.3v9.614h-5.554V17.92z"/>
	</g>
</g>
</svg>
